<mxfile host="Electron" modified="2024-05-21T14:50:38.275Z" agent="Mozilla/5.0 (Windows NT 10.0; Win64; x64) AppleWebKit/537.36 (KHTML, like Gecko) draw.io/22.1.16 Chrome/120.0.6099.109 Electron/28.1.0 Safari/537.36" etag="7o4rxR4xNBX5tIjgEUhB" version="22.1.16" type="device">
  <diagram name="PÃ¡gina-1" id="oCzgtgoqCYRxmVZb0iDz">
    <mxGraphModel dx="864" dy="516" grid="1" gridSize="10" guides="1" tooltips="1" connect="1" arrows="1" fold="1" page="1" pageScale="1" pageWidth="827" pageHeight="1169" math="0" shadow="0">
      <root>
        <mxCell id="0" />
        <mxCell id="1" parent="0" />
        <mxCell id="f6V0gqfG_dEPYImOySBD-5" style="edgeStyle=orthogonalEdgeStyle;rounded=0;orthogonalLoop=1;jettySize=auto;html=1;entryX=0.5;entryY=1;entryDx=0;entryDy=0;" parent="1" source="f6V0gqfG_dEPYImOySBD-2" target="f6V0gqfG_dEPYImOySBD-3" edge="1">
          <mxGeometry relative="1" as="geometry" />
        </mxCell>
        <mxCell id="f6V0gqfG_dEPYImOySBD-11" style="edgeStyle=orthogonalEdgeStyle;rounded=0;orthogonalLoop=1;jettySize=auto;html=1;exitX=1;exitY=0.5;exitDx=0;exitDy=0;entryX=0;entryY=0.5;entryDx=0;entryDy=0;" parent="1" source="f6V0gqfG_dEPYImOySBD-3" target="f6V0gqfG_dEPYImOySBD-8" edge="1">
          <mxGeometry relative="1" as="geometry" />
        </mxCell>
        <mxCell id="f6V0gqfG_dEPYImOySBD-3" value="&lt;div&gt;ORDEN DE COMPRA&lt;/div&gt;&lt;div&gt;id: Long PK&lt;/div&gt;&lt;div&gt;user_id: Long FK&lt;/div&gt;&lt;div&gt;total: Double&lt;/div&gt;&lt;div&gt;direccion_envio:String&lt;/div&gt;&lt;div&gt;fecha:Date&lt;/div&gt;&lt;div&gt;Estado de Orden: ENUM&lt;/div&gt;" style="rounded=1;whiteSpace=wrap;html=1;" parent="1" vertex="1">
          <mxGeometry x="60" y="140" width="150" height="110" as="geometry" />
        </mxCell>
        <mxCell id="f6V0gqfG_dEPYImOySBD-10" style="edgeStyle=orthogonalEdgeStyle;rounded=0;orthogonalLoop=1;jettySize=auto;html=1;entryX=1;entryY=0.5;entryDx=0;entryDy=0;" parent="1" source="f6V0gqfG_dEPYImOySBD-7" target="f6V0gqfG_dEPYImOySBD-8" edge="1">
          <mxGeometry relative="1" as="geometry" />
        </mxCell>
        <mxCell id="f6V0gqfG_dEPYImOySBD-7" value="PRODUCTO&lt;div&gt;id:Long PK&lt;/div&gt;&lt;div&gt;nombre: String&lt;/div&gt;&lt;div&gt;Stock: Long&lt;/div&gt;&lt;div&gt;Img: String&lt;/div&gt;&lt;div&gt;Precio: Double&lt;/div&gt;&lt;div&gt;fecha_ingreso&lt;/div&gt;" style="rounded=1;whiteSpace=wrap;html=1;" parent="1" vertex="1">
          <mxGeometry x="430" y="140" width="150" height="110" as="geometry" />
        </mxCell>
        <mxCell id="f6V0gqfG_dEPYImOySBD-26" style="edgeStyle=orthogonalEdgeStyle;rounded=0;orthogonalLoop=1;jettySize=auto;html=1;" parent="1" source="f6V0gqfG_dEPYImOySBD-8" edge="1">
          <mxGeometry relative="1" as="geometry">
            <mxPoint x="210" y="195" as="targetPoint" />
          </mxGeometry>
        </mxCell>
        <mxCell id="f6V0gqfG_dEPYImOySBD-8" value="Listado-Productos&lt;br&gt;&lt;div&gt;id_carrito: Long FK&lt;/div&gt;&lt;div&gt;id_producto: Long FK&lt;/div&gt;" style="rounded=0;whiteSpace=wrap;html=1;" parent="1" vertex="1">
          <mxGeometry x="260" y="155" width="120" height="80" as="geometry" />
        </mxCell>
        <mxCell id="f6V0gqfG_dEPYImOySBD-9" style="edgeStyle=orthogonalEdgeStyle;rounded=0;orthogonalLoop=1;jettySize=auto;html=1;exitX=0.5;exitY=1;exitDx=0;exitDy=0;" parent="1" source="f6V0gqfG_dEPYImOySBD-8" target="f6V0gqfG_dEPYImOySBD-8" edge="1">
          <mxGeometry relative="1" as="geometry" />
        </mxCell>
        <mxCell id="f6V0gqfG_dEPYImOySBD-21" value="" style="edgeStyle=orthogonalEdgeStyle;rounded=0;orthogonalLoop=1;jettySize=auto;html=1;" parent="1" source="f6V0gqfG_dEPYImOySBD-19" target="f6V0gqfG_dEPYImOySBD-7" edge="1">
          <mxGeometry relative="1" as="geometry" />
        </mxCell>
        <mxCell id="f6V0gqfG_dEPYImOySBD-19" value="Crea / Actualliza" style="text;html=1;align=center;verticalAlign=middle;whiteSpace=wrap;rounded=0;" parent="1" vertex="1">
          <mxGeometry x="610" y="180" width="90" height="30" as="geometry" />
        </mxCell>
        <mxCell id="wevVcWLvCQz-J5SauvEG-3" style="edgeStyle=orthogonalEdgeStyle;rounded=0;orthogonalLoop=1;jettySize=auto;html=1;entryX=0.5;entryY=1;entryDx=0;entryDy=0;" edge="1" parent="1" source="f6V0gqfG_dEPYImOySBD-2" target="f6V0gqfG_dEPYImOySBD-19">
          <mxGeometry relative="1" as="geometry" />
        </mxCell>
        <mxCell id="f6V0gqfG_dEPYImOySBD-2" value="USUARIO&lt;div&gt;id: Long PK&lt;br&gt;&lt;div&gt;&lt;div&gt;username: String&lt;/div&gt;&lt;div&gt;password: String&lt;/div&gt;&lt;/div&gt;&lt;/div&gt;&lt;div&gt;IsAdmin: boolean&lt;/div&gt;" style="rounded=1;whiteSpace=wrap;html=1;" parent="1" vertex="1">
          <mxGeometry x="380" y="290" width="150" height="110" as="geometry" />
        </mxCell>
      </root>
    </mxGraphModel>
  </diagram>
</mxfile>
